<?xml version="1.0" encoding="utf-8"?>
<!-- Generator: Adobe Illustrator 24.2.1, SVG Export Plug-In . SVG Version: 6.00 Build 0)  -->
<svg version="1.1" xmlns="http://www.w3.org/2000/svg" xmlns:xlink="http://www.w3.org/1999/xlink" x="0px" y="0px"
	 viewBox="0 0 400 200" style="enable-background:new 0 0 400 200;" xml:space="preserve">
<style type="text/css">
	.st0{display:none;}
	.st1{display:inline;fill:#010202;}
	.st2{fill:none;stroke:#FFFFFF;stroke-width:3;stroke-miterlimit:10;}
	.st3{fill:#FFFFFF;}
</style>
<g id="Calque_1" class="st0">
	<rect x="0.3" y="-0.6" class="st1" width="399.7" height="200.6"/>
</g>
<g id="logo">
	<circle class="st2" cx="200" cy="100" r="97.4"/>
	<g>
		<g>
			<path class="st3" d="M156.1,23.1C149,33.3,149.9,47,155,57.8c5.5,11.5,15.3,20,25,27.9c4.6,3.8,9.6,8,11.2,14
				c0.7,2.6,0.8,5.6-0.4,8.1c-1.4,2.7-3.9,4.8-5.8,7.2c-4.6,5.9-8.4,12.4-12.5,18.6c-3.5,5.3-7.5,11.1-7.1,17.8
				c0.2,3,1.1,5.9,3.1,8.1c1.1,1.3,2.6,2.3,4.4,1.9c1.7-0.4,2.9-2.2,3.9-3.5c4.3-5.2,7.8-10.9,12.5-15.8c4.6-4.8,10-8.5,15.6-12
				c2.8-1.7,5.6-3.5,7.9-5.9c2.3-2.3,4-5.2,5-8.3c2.2-6.7,1.2-13.9-0.5-20.5c-0.8-3.3-1.8-6.6-3-9.7c-1.3-3.3-3.1-6.3-5.2-9.2
				c-7.9-11.1-15.4-22.5-21.7-34.5c-3.1-6-5.9-12.1-8.4-18.3c-0.6-1.5-1.2-3-2.6-3.9c-1.6-1.1-3.6-0.9-5,0.5
				c-2.4,2.4-2.3,6.6-1.9,9.7c0.5,3.2,1.6,6.4,2.8,9.4c1.2,3.2,2.6,6.3,4.2,9.4c3,5.9,6.5,11.4,10.3,16.8c1.9,2.6,3.8,5.2,5.7,7.8
				c0.1-1,0.3-2,0.4-3c-0.7,0.6-1.9,0-2.5-0.5c-1.3-1.1-2.2-2.6-3.2-3.9c-2.3-3.2-4.6-6.5-6.8-9.8C176,49.7,171.9,42.9,168,36
				c-2.2-3.9-4.3-7.9-6.4-11.9c-1.5-2.9-5.8-0.3-4.3,2.5c7.9,15.5,16.9,30.8,27.5,44.6c1.4,1.8,3,3.4,5.2,4.2
				c2.3,0.7,4.7,0.2,6.4-1.3c0.7-0.7,1-2.2,0.4-3c-7.4-9.8-14.6-20.1-19.2-31.6c-1.2-2.9-2.2-5.9-2.9-8.9c-0.3-1.4-0.5-2.8-0.4-4.2
				c0.1-0.6,0.2-1.2,0.4-1.8c0-0.1,0.2-0.5,0.2-0.5c0-0.5-1.3-0.1-1.3,0.1c0,0.3,0.6,1.2,0.7,1.5c0.3,0.7,0.6,1.4,0.8,2.1
				c0.7,1.6,1.3,3.2,2,4.8c1.3,2.9,2.6,5.8,4,8.6c5.7,11.5,12.5,22.4,19.9,33c1.8,2.6,3.7,5.2,5.5,7.8c1.7,2.6,3,5.4,4,8.4
				c2,6.2,4,12.8,3.5,19.4c-0.2,2.7-0.9,5.4-2.2,7.8c-1.3,2.5-3.3,4.4-5.6,6c-2.5,1.8-5.2,3.3-7.8,5c-2.7,1.8-5.4,3.7-7.9,5.8
				c-4.9,4.1-8.8,8.9-12.6,14c-1.8,2.5-3.6,4.9-5.6,7.3c-0.2,0.3-0.7,0.7-0.9,1c-0.1,0.1-0.2,0.2-0.2,0.3c1.4,0.4,1.9,0.4,1.4-0.1
				c-0.3-0.5-0.8-0.8-1.1-1.3c-0.6-1-1-2.1-1.1-3.2c-0.8-5.8,3.1-11,6.1-15.6c3.8-5.8,7.3-11.7,11.4-17.2c1.9-2.6,4.2-4.7,6.1-7.2
				c1.8-2.4,2.7-5.3,2.7-8.3c0.2-6.1-2.9-11.6-7-15.9c-4.1-4.4-9.1-7.9-13.6-11.8c-4.3-3.8-8.5-7.9-11.9-12.5
				c-6.4-8.8-10.4-20.1-7.2-30.9c0.7-2.5,1.9-4.8,3.4-7c0.8-1.1,0.2-2.8-0.9-3.4C158.3,21.5,156.9,22,156.1,23.1L156.1,23.1z"/>
		</g>
	</g>
	<g>
		<g>
			<path class="st3" d="M190.3,153.7c6.9-1.9,11.5-7.2,16.5-12c2.8-2.7,6.1-4.7,9.1-7.2c3-2.6,5.1-5.9,6.6-9.5
				c3.3-7.7,5.9-16.4,5.9-24.9c-0.1-8.2-3.1-16.2-7.4-23.1c-5.1-8.2-11.8-15.3-18.4-22.2c0,1.2,0,2.4,0,3.5c5.4-5,13.2-6.9,20.3-6.1
				c1.8,0.2,3.5,0.6,5.2,1.2c1.5,0.5,3.4,1,3.7,2.7c0.4,2.1,0.9,3.8,2.4,5.4c1.4,1.4,3.1,2.3,4.8,3c4.9,2.1,10.2,3.3,15.3,4.8
				c-0.5-1.2-1-2.4-1.5-3.7c-3.8,5.4-10.4,8.8-16.9,9.5c-2,0.2-3,1.9-2.2,3.8c6.1,13.8,11,29.4,7.9,44.6c-1.3,6.5-4,12.7-8.2,17.9
				c-2.2,2.6-4.7,5.2-7.5,7c-3.3,2.1-6.9,2.7-10.7,3.1c-8.5,1-17.5,1.9-25.7-1.5c-1.2-0.5-2.7,0.6-3.1,1.7c-0.4,1.4,0.5,2.6,1.7,3.1
				c7.7,3.2,16.4,2.8,24.5,1.9c4.3-0.5,8.7-0.7,12.7-2.5c3.7-1.6,6.8-4.3,9.5-7.1c10.8-11.4,14-27.3,11.9-42.5
				c-1.4-9.8-4.9-19.2-8.8-28.2c-0.7,1.3-1.4,2.5-2.2,3.8c8.4-1,16.3-5,21.2-12c1-1.4-0.1-3.2-1.5-3.7c-4.8-1.4-9.7-2.5-14.3-4.4
				c-1.4-0.6-3.1-1.4-4-2.6c-0.4-0.6-0.5-1.4-0.7-2.1c-0.2-1.3-0.6-2.5-1.4-3.5c-1.5-1.7-3.8-2.6-5.8-3.3c-2-0.7-4.1-1.1-6.2-1.3
				c-4.1-0.5-8.4-0.1-12.3,1c-4.4,1.2-8.5,3.4-11.9,6.5c-1,0.9-0.9,2.6,0,3.5c5.5,5.7,11,11.5,15.6,18c4.2,6.1,7.8,13,8.6,20.4
				c0.9,8-1.5,16-4.1,23.4c-1.1,3.2-2.5,6.4-4.8,8.9c-2.5,2.8-5.9,4.7-8.7,7.1c-5.3,4.4-9.5,10.8-16.4,12.6
				C185.8,149.8,187.2,154.6,190.3,153.7L190.3,153.7z"/>
		</g>
	</g>
</g>
</svg>
